# xmcd
#
# Track frame offsets: 
#        150
#        18558
#        37322
#        55170
#        70674
#        84240
#        100690
#        115384
#        128891
#        148230
#        163561
#        178916
#        197206
#        217375
#        236977
#        252425
#        266000
#        290092
#
# Disc length: 4097 seconds
#
# Revision: 3
# Processed by: cddbd v1.4PL0 Copyright (c) Steve Scherf et al.
# Submitted via: ExactAudioCopy v0.95a3
#
DISCID=240fff12
DTITLE=Various Artist - Promo Only Country Radio - December 2002
DYEAR=2002
DGENRE=Country
TTITLE0=Faith Hill - When The Lights Go Down
TTITLE1=Tim McGraw - Red Rag Top
TTITLE2=Blake Shelton - The Baby
TTITLE3=Vince Gill - Next Big Thing
TTITLE4=Dolly Parton - Hello God
TTITLE5=Alison Krauss and Union Station - New Favorite
TTITLE6=Hank Williams Jr. - Outdoor Lovin' Man
TTITLE7=Charlie Daniels Band and Trivis Tritt - Southern Boy
TTITLE8=Kid Rock (Ft. Allison Moorer) - Picture
TTITLE9=Randy Travis - Three Wooden Crosses
TTITLE10=Doug Stone - POW 369
TTITLE11=Lee Greenwood - Rocks That You Can't Move
TTITLE12=Amanda Dycus - Nothing Ever Happens
TTITLE13=Daron Norwood - In God We Trust
TTITLE14=John Colbert - Can't Always Tell
TTITLE15=Jenai - Cool Me Down
TTITLE16=Cross Canadian Ragweed - 17
TTITLE17=Kelly Weaver - The Lucky One
EXTD=
EXTT0=
EXTT1=
EXTT2=
EXTT3=
EXTT4=
EXTT5=
EXTT6=
EXTT7=
EXTT8=
EXTT9=
EXTT10=
EXTT11=
EXTT12=
EXTT13=
EXTT14=
EXTT15=
EXTT16=
EXTT17=
PLAYORDER=
